<svg xmlns="http://www.w3.org/2000/svg" viewBox="0 0 256 256" role="img" aria-label="Denari icon">
  <defs>
    <linearGradient id="denari-bg" x1="32" y1="24" x2="224" y2="232" gradientUnits="userSpaceOnUse">
      <stop offset="0" stop-color="#0f172a"/>
      <stop offset="0.55" stop-color="#1d4ed8"/>
      <stop offset="1" stop-color="#0f766e"/>
    </linearGradient>
    <linearGradient id="denari-gold" x1="78" y1="56" x2="196" y2="200" gradientUnits="userSpaceOnUse">
      <stop offset="0" stop-color="#fef3c7"/>
      <stop offset="0.45" stop-color="#fbbf24"/>
      <stop offset="1" stop-color="#d97706"/>
    </linearGradient>
  </defs>
  <rect width="256" height="256" rx="56" fill="url(#denari-bg)"/>
  <circle cx="182" cy="70" r="18" fill="#ffffff" opacity="0.12"/>
  <circle cx="70" cy="188" r="14" fill="#ffffff" opacity="0.1"/>
  <path d="M82 56h46c52 0 92 31 92 72s-40 72-92 72H82V56Z" fill="none" stroke="url(#denari-gold)" stroke-width="18" stroke-linecap="round" stroke-linejoin="round"/>
  <path d="M104 86h26c25 0 46 19 46 42s-21 42-46 42h-26V86Z" fill="#f8fafc" opacity="0.2"/>
  <path d="M110 164h18V98h-18v66Zm30 0h18v-50h-18v50Zm30 0h18v-32h-18v32Z" fill="#f8fafc"/>
  <path d="M104 186h90" stroke="#f8fafc" stroke-width="10" stroke-linecap="round" opacity="0.9"/>
</svg>
